<?xml version="1.0" encoding="utf-8"?>
<!-- Generator: Adobe Illustrator 22.1.0, SVG Export Plug-In . SVG Version: 6.00 Build 0)  -->
<svg version="1.1" id="Warstwa_1" xmlns="http://www.w3.org/2000/svg" xmlns:xlink="http://www.w3.org/1999/xlink" x="0px" y="0px"
	 viewBox="0 0 612 665.9" style="enable-background:new 0 0 612 665.9;" xml:space="preserve">
<style type="text/css">
	.st0{display:none;}
	.st1{display:inline;fill:#D15454;}
	.st2{display:inline;fill:#333333;}
</style>
<g id="logo-symbol" class="st0">
	<path class="st1" d="M219.2,97.8c3.3,4.3,9.4,5.1,13.7,1.8c24-18.3,52.7-28,82.9-28c75.4,0,136.7,61.3,136.7,136.7
		c0,75.4-61.3,136.7-136.7,136.7c-75.4,0-136.7-61.3-136.7-136.7c0-30.3,9.7-58.9,28-82.9c3.3-4.3,2.5-10.4-1.8-13.7
		c-4.3-3.3-10.4-2.5-13.7,1.8c-21,27.4-32,60.2-32,94.8c0,86.2,70.1,156.3,156.2,156.3c86.2,0,156.3-70.1,156.3-156.3
		c0-86.2-70.1-156.3-156.3-156.3c-34.6,0-67.4,11.1-94.8,32C216.7,87.4,215.9,93.5,219.2,97.8L219.2,97.8z M315.8,0
		C200.9,0,107.4,93.5,107.4,208.3s93.5,208.3,208.3,208.3c114.9,0,208.3-93.5,208.3-208.3C524.1,93.5,430.6,0,315.8,0z M315.8,397.1
		c-104.1,0-188.8-84.7-188.8-188.8c0-104.1,84.7-188.8,188.8-188.8s188.8,84.7,188.8,188.8C504.6,312.4,419.9,397.1,315.8,397.1z"/>
</g>
<g id="logo-text" class="st0">
	<path class="st2" d="M114.7,627.2C106,621.3,8.1,559.8,8.1,559.8c-2.8-2.2-4.1-5.5,0-10.8c13.4-17.7,33.7-28.4,56.8-28.4
		c23.1,0,45.3,11.8,58.7,31.1c1.8,2.8,1.8,6.5-0.8,8.1c-2.6,1.8-6.3,1-8.1-1.6c-11.6-16.2-30.2-25.8-49.7-25.8
		c-18.7,0-35.5,7.1-47.1,21.3l107.6,67.6c1.8,0.8,2.6,4.3,0.8,7.1c-12.4,22.1-35.5,35.5-61.3,35.5c-24.8,0-47.9-12.6-61.3-34.1
		c-1.8-2.6,0-5.9,1.8-7.7c2.6-0.8,6.3,0,7.9,1.8c10.8,18.7,30.2,29.2,51.6,29.2C84.5,653.2,103.1,643.4,114.7,627.2L114.7,627.2z
		 M302.2,593.1c0,40.2-32.7,72.9-73.9,72.9c-40,0-72.7-32.7-72.7-72.9c0-40,32.7-72.9,72.7-72.9
		C269.6,520.2,302.2,553.1,302.2,593.1L302.2,593.1z M291.5,593.1c0-33.7-28.4-61.9-63.1-61.9c-33.5,0-61.9,28.2-61.9,61.9
		c0,34.7,28.4,61.9,61.9,61.9C263.1,655,291.5,627.8,291.5,593.1L291.5,593.1z M453.5,521.6c2.6,0,5.1,2.4,5.1,5.5v65.8
		c0,38.8-27.2,70.6-60.9,70.6c-33.3,0-60.7-31.9-60.7-70.6l-0.8-65.2c0-3.6,2.4-5.3,6.1-5.3c2.6,0,5.5,1.6,5.5,5.3v65.2
		c0,32.7,22.7,60.3,49.9,60.3c27.6,0,49.7-27.6,49.7-60.3v-65.8C447.4,524.1,449.8,521.6,453.5,521.6L453.5,521.6z M613.2,577.2
		c0,30.6-28.8,56.2-64.7,56.2l-43.8-1v26.2c0,2.6-2.4,5.3-5.1,5.3c-3.7,0-5.3-2.6-5.3-5.3l-0.2-32.3v-99c0-2.6,1.8-5.3,5.5-5.3h48.9
		C584.4,522,613.2,546.6,613.2,577.2z M602,577.2c0-24.6-23.7-44.9-53.6-44.9h-43.8v89.5h43.8C578.3,621.9,602,601.8,602,577.2z"/>
</g>
<image style="overflow:visible;" width="1890" height="1417" xlink:href="logotaptapnow.png"  transform="matrix(0.3397 0 0 0.3397 -15 111.3084)">
</image>
</svg>
